PathFileType	4	(X/Y/Z)	51_2_51_p0_0-438_filt_butterworth.trc
DataRate	CameraRate	NumFrames	NumMarkers	Units	OrigDataRate	OrigDataStartFrame	OrigNumFrames
53.0	53.0	6	27	m	53.0	164	438
Frame#	Time	RHip			RKnee			RAnkle			RBigToe			RSmallToe			RHeel			LHip			LKnee			LAnkle			LBigToe			LSmallToe			LHeel			Neck			Head			Nose			RShoulder			RElbow			RWrist			RThumb			RIndex			RPinky			LShoulder			LElbow			LWrist			LThumb			LIndex			LPinky			
		X1	Y1	Z1	X2	Y2	Z2	X3	Y3	Z3	X4	Y4	Z4	X5	Y5	Z5	X6	Y6	Z6	X7	Y7	Z7	X8	Y8	Z8	X9	Y9	Z9	X10	Y10	Z10	X11	Y11	Z11	X12	Y12	Z12	X13	Y13	Z13	X14	Y14	Z14	X15	Y15	Z15	X16	Y16	Z16	X17	Y17	Z17	X18	Y18	Z18	X19	Y19	Z19	X20	Y20	Z20	X21	Y21	Z21	X22	Y22	Z22	X23	Y23	Z23	X24	Y24	Z24	X25	Y25	Z25	X26	Y26	Z26	X27	Y27	Z27	
164	3.0943396226415096	0.11582300295989591	0.9211093091098056	0.5770134056722289	0.11051481162063223	0.44974308859557477	0.6565786404234488	0.09134601393828913	0.023843608945980643	0.6555982148237169	0.04679392785048707	0.0028798648306630065	0.5107205018383626	0.10926007071841053	0.016214553432766697	0.5006368324804247	0.06234973545033426	-0.056234999411226824	0.7255330908850098	-0.08493702018543382	0.904720254797556	0.5733721250063663	-0.1189682985089241	0.4361194796835695	0.6491176031022	-0.13567677151665267	0.007673488567616432	0.6406954598918823	-0.0978319004901173	0.0074891438918812045	0.4938801129223999	-0.15515043636954598	0.011019376329976627	0.5070690935636376	-0.13309781394591358	-0.04110547056236084	0.665600055624307	-0.013526923720827713	1.5109864287188512	0.6498445168006196	-0.02553446316075259	1.7489395181950271	0.596339236563687	-0.0331460887011304	1.6405648177757386	0.5076971032173301	0.14728399269766562	1.4028409656623972	0.6084028200299103	0.16917412996333475	1.152960598770002	0.5644967060195395	0.06815168294816962	0.9814326787700182	0.46701228021580443	-0.03326441535805664	0.9104893726245584	0.47666518219331555	-0.03228517379746297	0.8803921186266227	0.4658848292805104	-0.013336089199544838	0.8746611240044981	0.4542495569012011	-0.15948890350898232	1.385793699180633	0.6452866912686859	-0.17905938294680024	1.1323576795828123	0.5653143237707732	-0.024976161885162204	1.0340742396386484	0.4404537182953413	0.06069336955634705	1.0107809703851642	0.4529639216218265	0.0668566788858328	0.9695974064347957	0.44444708567082125	0.043405717667439926	0.9509343944662558	0.40442085212069034	
165	3.113207547169812	0.11462566372348051	0.9213908503404444	0.5764647151768465	0.11068147885988056	0.44975115089249823	0.6560971261830583	0.09113730267696327	0.023800227798785573	0.6557101407552505	0.04747543731584511	0.0018667253789346194	0.5110127860634844	0.10892052409760587	0.015294267406306752	0.5033777518621311	0.06100688437645093	-0.05882171010639338	0.7296942186659695	-0.0859408103601965	0.9052551264656471	0.5743441403867426	-0.1196647884607179	0.4373365629132699	0.6505504494636939	-0.1360236076844715	0.008367757545572216	0.6421390214630637	-0.09817182956362816	0.007557830604708021	0.49540758619309444	-0.1558103923977526	0.010797194686947093	0.5086826153270239	-0.133553331077661	-0.039847644892488196	0.6662478938583525	-0.011509051950486467	1.5104442958241049	0.648153089156223	-0.01882894970950137	1.749979201765612	0.5956057530294203	-0.030795120435478794	1.6405369480743515	0.5071549190975796	0.14783056531406236	1.4005917259800489	0.6086899963083559	0.17007624580401343	1.150684215358782	0.5629262081241848	0.06781731186546218	0.981110713450329	0.4668624368879449	-0.0334265516747429	0.9147127456902993	0.4741003787485339	-0.03255788264957782	0.8821674983616357	0.46605884303137707	-0.014304514846193755	0.8756700576237312	0.45416592374024145	-0.15970633358428415	1.3863071722553675	0.645012139046048	-0.17912293184206926	1.133987143416723	0.5651190989812933	-0.025446403603442948	1.0347062535318265	0.43861121977936735	0.06255357745693563	1.0135893322862817	0.4503377051206734	0.06916835825106957	0.9723236786225886	0.44147835163007887	0.043598096972654155	0.951022411532353	0.4055964871862762	
166	3.1320754716981134	0.11342974501455476	0.9215091381737514	0.576069133320137	0.110829711605318	0.44957183146131724	0.6555459437815743	0.09105465620875335	0.023517415213737417	0.6558028392234087	0.04855456871847043	0.001088406055112491	0.5120527360794666	0.10854763326470662	0.012900354352771481	0.5077724196373694	0.059831980036515256	-0.06112768314313548	0.7332807251895349	-0.08707374709261312	0.905776185915708	0.5754537449815543	-0.12036480494224334	0.438233236587698	0.6515010515480623	-0.13640488263099856	0.008940986137712353	0.6436859746160873	-0.09895788177754983	0.007726779801012475	0.4966352421107881	-0.15722500288171284	0.010545670229725912	0.5111649539742579	-0.13385283816986304	-0.03849880459173211	0.6666607343085706	-0.009563973901110823	1.510169314107478	0.6463802641557485	-0.0122360453991367	1.7512671400609465	0.5957788020654194	-0.02761567069560071	1.6409962666909916	0.5078192688422611	0.14827220051155804	1.3986842222956428	0.6091142678773853	0.17048458745642003	1.1496752833638941	0.5598713516025934	0.0677785450326494	0.9816003350234285	0.4669242529047284	-0.03372735914198453	0.9187089131696518	0.4716929716670965	-0.03263413826750026	0.8840490684086074	0.4663247482740166	-0.015018989574430031	0.8762468039569847	0.4542530773923784	-0.1598255172622092	1.3872964126077372	0.6448654891809952	-0.17921541387262202	1.135957577905731	0.565202164960084	-0.026092682945881344	1.0356166725414457	0.43651712739049386	0.062267586207467085	1.0161595760523934	0.44643938348624335	0.06934748141970316	0.9749836747289377	0.43833264415465356	0.04322231394892043	0.9508251609080357	0.4072931238836396	
167	3.150943396226415	0.11228586882595158	0.9213922296828949	0.57587361148573	0.11087641469077492	0.4491691278375991	0.6551267020174867	0.09105427666591592	0.023184110018071497	0.6558300769941693	0.04981019839648751	0.000437002044043365	0.513939549717984	0.10828998589134159	0.009357017405368331	0.5136692869510487	0.05887070658822192	-0.06310394680768046	0.7363917173858832	-0.08828651956571693	0.9062657760539005	0.5766416247216115	-0.12109697153676813	0.43889893779083894	0.6519792851753842	-0.13683890898129555	0.009404610973020061	0.6453008093590806	-0.0999755095042682	0.007843087406652023	0.4968301602527937	-0.15923857588462462	0.010313379898499099	0.5140963977818438	-0.13398114768575559	-0.03716389596650187	0.6667919574848318	-0.0075389714769532	1.5103523852430176	0.6441880639454511	-0.006120017537174833	1.7528310275858248	0.5968795943904097	-0.023591001375551555	1.6420256505581	0.5095928367275186	0.14879129483667092	1.3970732749008266	0.6100342026101471	0.17049543085864793	1.1500466052759404	0.555678765400663	0.06802043736377136	0.9827696741579083	0.46718487781505147	-0.034089346849333776	0.9215741916277835	0.46968017101614334	-0.032567105296776463	0.8858127044386797	0.46656308292036697	-0.015356595190588348	0.8762389414733096	0.45449070625567106	-0.159677987504455	1.3888792870029345	0.6452012115638874	-0.17936203504499135	1.1381567668027575	0.5656643794618759	-0.02671685406698912	1.036750539613171	0.4344277147877045	0.06043316808385504	1.0180846566358972	0.44070208836435776	0.06725709865429604	0.976897375966224	0.4339808120549114	0.042381625531231	0.9503429241121142	0.409323479502552	
168	3.169811320754717	0.11114467507253682	0.9210831239988939	0.5759086599005097	0.11076781103269034	0.44853414753886445	0.6549491842861297	0.09110574363579295	0.022978615328238305	0.6557985280027369	0.05112343084355242	-0.0001892673875545925	0.5164239040492613	0.10821436339013325	0.0052797156556912625	0.5207237914642314	0.05813516699589264	-0.06458667138831871	0.7388785475655404	-0.08953771017668823	0.9066963508887694	0.5778690338364383	-0.1218526876571344	0.43955789334187134	0.6521170696655799	-0.13732245461469034	0.009847464414882781	0.6469001299999647	-0.10103078406448567	0.007671943031392556	0.49632041271448213	-0.16146463721050958	0.010120735944240726	0.5171142125490906	-0.13396618909041458	-0.03588513814267085	0.6667086086455595	-0.005479481408688943	1.511207337237226	0.6412182962013762	-0.0009250966701508615	1.7546011157448496	0.5989616934140101	-0.018879328511187864	1.6436320216310647	0.5122245618552088	0.14945201082256854	1.3958391614700751	0.6115860951607097	0.1704354956097851	1.1517207448520916	0.5508888290670572	0.06836321677254971	0.9842537652600118	0.46751468244878835	-0.03438687954178797	0.922998236978214	0.46816064225325127	-0.03247370955360736	0.8872593115515436	0.46695354216023754	-0.015345293648527818	0.8757856243800755	0.45464833309157227	-0.15915157395263743	1.3911691833143083	0.6456678850530793	-0.17944517848695135	1.1404181852967121	0.566248064260831	-0.02725385084065306	1.0378635297549756	0.4325651988157837	0.058312890684666344	1.019095616622844	0.4336489624698512	0.06402923242742481	0.9776678174746622	0.4286554748814136	0.04138782507103611	0.9496177809405355	0.4113788490461373	
169	3.188679245283019	0.10996650123247227	0.9206963229981077	0.5763603751365514	0.11050969412250328	0.44769053549404203	0.6550326839946925	0.09120200110518746	0.02292072302170367	0.6557535596486329	0.05239250078792625	-0.0008148345432856668	0.5190784980225567	0.10830904314785735	0.0012076131769426651	0.5280941031670903	0.05765937961059741	-0.06520775705734896	0.7401717807451377	-0.09079102293203879	0.9070402302012127	0.579128076674603	-0.12262666835659684	0.4403499930964229	0.6520658712974952	-0.13782753814396165	0.01039012678841264	0.6483834358338246	-0.10200694385724085	0.00702265243811117	0.49629784291827544	-0.16341675006712325	0.009958669371269865	0.5199174282153747	-0.1338889197995074	-0.03471598654181587	0.6666144999309419	-0.0033322124193741506	1.5129016774895556	0.6374290258473866	0.0030775780820707626	1.7563808709598812	0.6018353281092684	-0.013945312637325784	1.6458106212590882	0.5152672837567799	0.15026426998331208	1.395019562979865	0.6136508490309912	0.17064636096293195	1.1543225725068111	0.5459983059414268	0.06864586883549476	0.9857340082513766	0.467799880446377	-0.03448512349566388	0.9231766317075598	0.46735834374450225	-0.032587077058554	0.8881774618693682	0.4679702854039521	-0.015160969141111067	0.8751609571858866	0.4543071583039454	-0.1581909757684302	1.394110654591696	0.6456990884242851	-0.17923840780990558	1.1426716506581798	0.5663589443103773	-0.027664120844551433	1.0386957286954042	0.43113907799977685	0.05696849812178437	1.018871136100986	0.42754400521466773	0.061219361685989876	0.9773653782401486	0.4243647515166702	0.040460073447943695	0.9486561870801256	0.41312376906937875	
